<?xml version="1.0" encoding="UTF-8" standalone="no"?>
<svg
   viewBox="0 0 244 223.75861"
   version="1.1"
   id="svg71"
   sodipodi:docname="logo2_white.svg"
   width="244"
   height="223.75861"
   inkscape:version="1.3.2 (091e20e, 2023-11-25, custom)"
   xmlns:inkscape="http://www.inkscape.org/namespaces/inkscape"
   xmlns:sodipodi="http://sodipodi.sourceforge.net/DTD/sodipodi-0.dtd"
   xmlns="http://www.w3.org/2000/svg"
   xmlns:svg="http://www.w3.org/2000/svg">
  <sodipodi:namedview
     id="namedview71"
     pagecolor="#ffffff"
     bordercolor="#666666"
     borderopacity="1.0"
     inkscape:showpageshadow="2"
     inkscape:pageopacity="0.0"
     inkscape:pagecheckerboard="0"
     inkscape:deskcolor="#d1d1d1"
     inkscape:zoom="1.450473"
     inkscape:cx="121.33973"
     inkscape:cy="138.9202"
     inkscape:window-width="1366"
     inkscape:window-height="705"
     inkscape:window-x="-8"
     inkscape:window-y="-8"
     inkscape:window-maximized="1"
     inkscape:current-layer="svg71" />
  <defs
     id="defs1">
    <style
       id="style1">.cls-1{fill:#231f20;}.cls-2{fill:#e9bb64;}.cls-3{fill:#015295;}</style>
  </defs>
  <path
     class="cls-2"
     d="m 42.502279,111.67583 c 2.72,-3.33 5.43,-6.68 8.16,-10 q 5.56,-6.809997 11.16,-13.589997 a 3.25,3.25 0 0 0 0.72,-2.2 c 0,-11 0,-22 0,-33 0,-1.14 0.27,-1.48 1.44,-1.47 10.63,0 21.26,0 31.89,0 a 4.17,4.17 0 0 0 2.82,-1 q 11.350001,-9.18 22.780001,-18.27 c 0.42,-0.33 0.55,-1.18 1.38,-0.9 v 0 c 2.51,2.42 5.37,4.4 8.08,6.58 5.59,4.51 11.26,8.92 16.87,13.42 a 2.69,2.69 0 0 0 1.85,0.59 q 16.08,0 32.16,0 c 1.57,0 1.57,0 1.57,1.52 0,10.56 0,21.11 0,31.67 a 3.9,3.9 0 0 0 1,2.8 c 2.86,3.34 5.59,6.78 8.38,10.17 3.68,4.439997 7.39,8.869997 11.08,13.309997 a 2.71,2.71 0 0 1 0.2,0.42 c 0.15,0.36 -0.13,0.6 -0.26,0.88 a 8.08,8.08 0 0 0 -0.65,0.66 q -9.37,11.35 -18.77,22.7 a 2.74,2.74 0 0 0 -0.67,1.94 q 0,16.56 0,33.1 c 0,2.39 0,2.39 -2.44,2.39 h -32.22 a 2.84,2.84 0 0 0 -2,0.58 q -11.35,9.56 -22.75,19.06 a 1.55,1.55 0 0 1 -1.26,0.12 9.78,9.78 0 0 1 -2.87,-2.11 c -6.92,-5.66 -13.87,-11.29 -20.760001,-17 a 5.81,5.81 0 0 0 -4,-1.43 c -10.64,0.07 -21.27,0 -31.91,0.06 -1.16,0 -1.45,-0.34 -1.44,-1.48 0,-10.83 0,-21.67 0,-32.5 a 3.57,3.57 0 0 0 -0.8,-2.26 c -3.44,-4.25 -6.84,-8.53 -10.26,-12.8 l -8.26,-10.26 -0.26,-0.33 c 0,-0.15 0,-0.3 0,-0.44 a 1.07,1.07 0 0 1 0.04,-0.93 z"
     id="path2" />
  <path
     class="cls-3"
     d="m 203.67228,112.70583 c 0.13,-0.28 0.41,-0.52 0.26,-0.88 0.79,0.37 1.14,1.16 1.64,1.78 q 9,11.16 17.91,22.36 a 2.56,2.56 0 0 1 0.6,1.73 q 0,37 0,73.91 c 0,1.11 -0.34,1.29 -1.33,1.28 q -28.44,0 -56.87,0 c -5.52,0 -11,0 -16.55,0 a 3.67,3.67 0 0 1 -2.49,-0.9 c -7.36,-5.89 -14.76,-11.73 -22.11,-17.63 a 1.23,1.23 0 0 0 -1.86,0 c -7.69,6.2 -15.4,12.35 -23.090001,18.53 a 2.51,2.51 0 0 1 -1.73,0.62 q -37.08,0 -74.14,0 c -1,0 -1.07,-0.39 -1.07,-1.18 q 0,-17.88 0,-35.76 0,-19 0,-38 a 2.76,2.76 0 0 1 0.57,-1.87 q 9.21,-11.52 18.4,-23 a 6.35,6.35 0 0 1 0.58,-0.58 l 0.26,0.33 a 7.75,7.75 0 0 0 -0.11,0.94 q 0,29.38 0.06,58.76 0,9.6 0,19.19 c 0,0.8 0.12,1.07 1,1.05 2.91,-0.07 5.83,0 8.75,0 l 61.740001,-0.06 h 8.88 a 1.55,1.55 0 0 0 1.26,-0.12 h 33.7 q 22.26,0 44.51,0 c 1.19,0 1.44,-0.34 1.4,-1.46 -0.12,-3.11 0,-6.23 0,-9.34 0,-13 0,-25.91 0.06,-38.87 0,-5.19 -0.08,-10.39 -0.1,-15.58 0,-4.68 0,-9.36 0,-14 0.05,-0.52 0.21,-0.91 -0.13,-1.25 z"
     id="path3"
     style="fill:#d4d4d4;fill-opacity:1" />
  <path
     class="cls-3"
     d="m 122.80228,31.355833 a 22.43,22.43 0 0 1 4.13,-3.53 c 6.69,-5.4 13.41,-10.74 20.11,-16.120001 a 2.21,2.21 0 0 1 1.51,-0.54 q 37.24,0 74.5,0 c 0.88,0 1,0.28 1,1.08 q 0,28.360001 0,56.740001 c 0,5.44 0,10.88 0,16.32 a 4.83,4.83 0 0 1 -1.13,3.36 c -6,7.37 -11.83,14.789997 -17.74,22.179997 a 2,2 0 0 1 -0.91,0.85 4.7,4.7 0 0 1 -0.2,-2.1 q 0,-32.579997 0,-65.149997 c 0,-4 0,-8 0,-12 0,-0.86 -0.23,-1 -1.06,-1 q -30.36,0 -60.7,0 c -6.52,0 -13,0.08 -19.55,-0.07 z"
     id="path4"
     style="fill:#d4d4d4;fill-opacity:1" />
  <path
     class="cls-3"
     d="m 42.502279,111.67583 a 1.07,1.07 0 0 0 -0.11,0.92 c -0.72,-0.29 -1,-1 -1.43,-1.56 q -9.13,-11.339997 -18.21,-22.719997 a 2.08,2.08 0 0 1 -0.49,-1.41 q 0,-37.18 0,-74.370001 c 0,-0.94 0.38,-1 1.13,-1 q 17.92,0 35.86,0 h 37.9 a 3,3 0 0 1 2,0.6 q 11.360001,9.090001 22.760001,18.150001 c 0.25,0.2 0.47,0.42 0.71,0.64 -0.19,0.42 -0.56,0.31 -0.84,0.31 -6.55,0.06 -13.11,0.14 -19.66,0.14 q -22.880001,0.06 -45.720001,-0.06 c -4.12,0 -8.24,-0.06 -12.35,-0.08 -1.57,0 -1.57,0 -1.57,1.54 q 0,20.57 0,41.13 c 0,6 -0.16,12.08 -0.06,18.11 0.1,6.56 -0.01,13.109997 0.08,19.659997 z"
     id="path5"
     style="fill:#d4d4d4;fill-opacity:1" />
</svg>
