<?xml version="1.0" encoding="UTF-8" standalone="no"?>
<svg
   viewBox="0 0 243 350.92"
   version="1.1"
   id="svg71"
   sodipodi:docname="logo_white.svg"
   inkscape:version="1.3.2 (091e20e, 2023-11-25, custom)"
   xmlns:inkscape="http://www.inkscape.org/namespaces/inkscape"
   xmlns:sodipodi="http://sodipodi.sourceforge.net/DTD/sodipodi-0.dtd"
   xmlns="http://www.w3.org/2000/svg"
   xmlns:svg="http://www.w3.org/2000/svg">
  <sodipodi:namedview
     id="namedview71"
     pagecolor="#ffffff"
     bordercolor="#666666"
     borderopacity="1.0"
     inkscape:showpageshadow="2"
     inkscape:pageopacity="0.0"
     inkscape:pagecheckerboard="0"
     inkscape:deskcolor="#d1d1d1"
     inkscape:zoom="1.450473"
     inkscape:cx="121.33973"
     inkscape:cy="72.045464"
     inkscape:window-width="1366"
     inkscape:window-height="705"
     inkscape:window-x="-8"
     inkscape:window-y="-8"
     inkscape:window-maximized="1"
     inkscape:current-layer="Layer_1-2" />
  <defs
     id="defs1">
    <style
       id="style1">.cls-1{fill:#231f20;}.cls-2{fill:#e9bb64;}.cls-3{fill:#015295;}</style>
  </defs>
  <g
     id="Layer_2"
     data-name="Layer 2">
    <g
       id="Layer_1-2"
       data-name="Layer 1">
      <path
         class="cls-1"
         d="M51.4,336.73h0a1.81,1.81,0,0,0,.64,1l.5.35a2.72,2.72,0,0,0,3.67-.94l0,0c.57-.31.5-1,.76-1.44l.21-.38c.4-.71,1-1.35.82-2.26.15-.8-.37-1.33-.77-1.91s-.92-.47-1.3.06c-.25.36-.4.8-1,.71a1.27,1.27,0,0,1-.45-1.46,1.76,1.76,0,0,0,.44-1.55,1.62,1.62,0,0,1,.39-1.05.62.62,0,0,0,.43-.55.26.26,0,0,1,.12-.15,1.78,1.78,0,0,0,.6-1.06l.46-.68L58.38,323l.19-.36c.23-.5.48-1,.68-1.49.31-.79,0-1.45-.82-1.41a3.09,3.09,0,0,1-2.35-1.09.21.21,0,0,1-.1-.16l-.23-.51,0-2.37a14.68,14.68,0,0,0,.7-2.7l.26-1.62a1.57,1.57,0,0,0,.6-1.78.6.6,0,0,0-.48-.47.41.41,0,0,0-.51.36c.07.79-.67,1.23-.75,1.94l-.18.59a.6.6,0,0,0-.3.61l-.25.58c-.88,1.27-.89,2.83-1.42,4.22l0,.64a1,1,0,0,0-.2.8l0,.87a1.22,1.22,0,0,0-.41,1.07l-.06.61a.88.88,0,0,0,0,1.06,12,12,0,0,0,1.43,2.54.54.54,0,0,0,.47.52h0a1.55,1.55,0,0,1,.31,1.26l-1.29,1.8a1.18,1.18,0,0,0-.45.76h0a13,13,0,0,0-1.67,3.89l-.2.36a2.67,2.67,0,0,0-.1,2l0,.45A.54.54,0,0,0,51.4,336.73Zm49.95,5a2.53,2.53,0,0,0,.44,2.35,1.14,1.14,0,0,0,1.58.39,2.27,2.27,0,0,0,.08-3.67l-.23-.21-.21-.54v-.69a26.37,26.37,0,0,1,2.07-4.32c.24-.39.32-.81-.09-1.05s-.57.25-.71.53c-.74,1.46-1.47,2.93-2.2,4.39l-.26.9a1.42,1.42,0,0,0-.4,1.3ZM134.13,0a8.88,8.88,0,0,0-1.76,1.7c-2,2.11-4.07,4.13-6,6.29s-4,4-6,6c-2.63,2.6-5.8,4.64-8.19,7.5-1,1.2-2.52,2-2.94,3.69s-1.55,3.24-2.26,4.9a13.29,13.29,0,0,0-1.27,7.06,16.39,16.39,0,0,1-.2,5.59c-.24,1.09-.8,2.53-1.88,2.54-1.45,0-1.6,1.7-2.78,1.63a1.69,1.69,0,0,0-1.52.74,1.26,1.26,0,0,1-1.44.56,1.34,1.34,0,0,0-.93.15c-.64.3-1.17,1.12-1.86.94s-.47-1.24-.83-1.85a3.52,3.52,0,0,0-2.52-2c-1.28-.16-1.82,1-2.34,1.92s-.9,1.85-1.35,2.77c-.84,1.68-.37,2.6,1.4,3.28.66.25,1.82-.38,1.91.63.07.72-1,1.17-1.45,1.81-.05.06-.13.09-.19.15-1.92,1.83-4.3,2.95-6.53,4.31-.23.14-.57.22-.46.59s.42.36.69.36a3.79,3.79,0,0,0,.82-.13c1.4-.32,2.71-.92,4-1.35,2.12-.67,3.2-2.17,4.25-3.87.72-1.17,1-2.63,2.24-3.47A16.83,16.83,0,0,1,100,50.19a10.31,10.31,0,0,0,3.75-2c2.88-2.37,4.1-5.74,4.4-9.28s.12-7,.42-10.5c0-.51-.08-1.24.38-1.42,1-.39,1.42-1.26,2.18-1.81,3.67-2.69,6.88-5.92,10.29-8.9,2.12-1.86,4.07-3.9,6-5.94a40.11,40.11,0,0,0,5-6.27C133.18,2.77,133.36,1.28,134.13,0ZM28.8,322.5c0,.48.1,1,.11,1.43a8.83,8.83,0,0,1-.72,4.39c-.72,1.43-2.72,1.17-3.41,2.63a.39.39,0,0,1-.34,0c-.72-.42-1.1.1-1.51.52a1.17,1.17,0,0,1-1.08.4,1.81,1.81,0,0,0-1.57.63c-1.22,1.13-1.85.9-2.38-.66a3.12,3.12,0,0,0-2.23-2.16c-1-.21-1.66.62-2.23,1.35a10.66,10.66,0,0,0-1.52,3.63,1.82,1.82,0,0,0,1.66,2.53c.55.06,1.36-.38,1.59.38s-.69,1-1,1.52c-.09.16-.32.23-.46.37a31.57,31.57,0,0,1-5.82,3.75c-.41.23-.92.58-.63,1.1s.77.15,1.19,0a17.54,17.54,0,0,1,2.92-1,7,7,0,0,0,4.95-4c.88-1.67,1.71-3.33,3.64-4,1.08-.4,2.15-.83,3.22-1.28a20.9,20.9,0,0,0,3.37-1.52C29.2,330.75,30.27,328,31,325a24.32,24.32,0,0,0,.31-4.51,43.93,43.93,0,0,0,.37-5.46,4.18,4.18,0,0,1,1.75-3.73c.38-.34.85-.58,1.25-.89,1.85-1.39,3.58-2.91,5.55-4.15a23.28,23.28,0,0,0,4.1-3.22c1.68-1.7,3.54-3.18,5.35-4.71,1.41-1.19,2.71-2.45,4-3.76a32.6,32.6,0,0,0,4.16-5.93c.2-.31.46-.65.09-.95s-.6.12-.84.37c-3.43,3.36-6.81,6.77-10.47,9.9-3.14,2.68-6.45,5.15-9.67,7.72a21,21,0,0,0-6.48,8.55A17.3,17.3,0,0,0,28.8,322.5Zm-2.39,21.25c-.35,1.33.35,2.42.71,3.6a4.52,4.52,0,0,0,2.4,2.82c2.78,1.34,5.59.7,8.2-.42,1.59-.68,2.66-2.24,3.76-3.6a17.06,17.06,0,0,0,2.46-4.85,20.94,20.94,0,0,0,1.35-7.1,2.08,2.08,0,0,0-1.68-2.38c-1.75-.46-2-1.3-1-2.78a14.61,14.61,0,0,1,4.3-3.91c.52-.35,1.06-.86,1.73-.51s1.1,0,1.46-.52a11.12,11.12,0,0,0,1.58-3.84c.17-.72-.29-1.11-1-.83a11.24,11.24,0,0,0-3.77,2.19c-3.1,3-6,6.08-7.19,10.35-.87,3.08-.55,4.65,2.49,5.38a1.34,1.34,0,0,1,.92,2,10.06,10.06,0,0,1-5.3,5.05,8.2,8.2,0,0,1-6.37.21,5.13,5.13,0,0,1-2.84-2.9c-.76-1.71.16-3.16.6-4.56,1-3.15,2.4-6.17,3.63-9.25.16-.39.5-.9-.16-1.08s-.92.26-1,.78c-.4,2.23-1.71,4.1-2.66,6.07A27.27,27.27,0,0,0,26.41,343.75Zm37.32,7.05a9.84,9.84,0,0,0,7.83-3.56,19.33,19.33,0,0,0,3.77-6.94,27.23,27.23,0,0,0,.94-5,3.28,3.28,0,0,0-2.47-4c-1.16-.39-1-1.11-.5-2,1-1.72,2.72-2.74,4.22-4a2.31,2.31,0,0,1,2.6-.63.71.71,0,0,0,.86-.28,17.62,17.62,0,0,0,1.73-4c.13-.68-.08-1.36-1.07-1a15.91,15.91,0,0,0-6.44,4.81,24.07,24.07,0,0,0-4.38,7c-.87,2.25-.57,4.75,1.1,5.71a10.69,10.69,0,0,0,1.34.48c1.09.46,1.32,1,.84,2.07a8.52,8.52,0,0,1-2.52,3.28c-2.64,1.95-5.54,3.18-9,1.91a4.4,4.4,0,0,1-3.08-3.95,15,15,0,0,1,1.95-6.92c1.08-1.94,1.47-4.15,2.48-6.11a.6.6,0,0,0-.24-.84c-.45-.22-.48.25-.64.49-1.21,1.87-1.81,4-2.91,5.95A19.18,19.18,0,0,0,58,339.18c-.45,2.38-1.34,4.91-.19,7.34.57,1.22.84,2.73,2.26,3.38C61.31,350.46,62.53,351.13,63.73,350.8Zm73.45,0a9.66,9.66,0,0,0,7.35-2.89,15.53,15.53,0,0,0,4.33-7.54c.35-1.22.61-2.46,1-3.67.75-2.37,0-3.91-2.18-5.05-.84-.43-1.25-.94-.69-2a12.72,12.72,0,0,1,3.85-4c.78-.59,1.87-1.73,3.21-.73a.31.31,0,0,0,.49-.15c.58-1.38,1.7-2.52,1.79-4.12.06-1.06-.34-1.34-1.33-1a14.39,14.39,0,0,0-3.29,2.16c-2.81,2-4.61,4.92-6.36,7.83a10.76,10.76,0,0,0-1.43,4.26,2.69,2.69,0,0,0,2.14,3.3,8.94,8.94,0,0,1,1.34.49,1,1,0,0,1,.55,1.62c-2.12,4.16-5.64,6.27-10.12,5.81-3-.3-4.59-1.68-4.48-4.55s1.33-5.6,2.4-8.28c.55-1.37,1.25-2.67,1.85-4,.16-.36.24-.85-.24-1s-.61.34-.81.67a71.29,71.29,0,0,0-3.71,8,19.12,19.12,0,0,0-1.74,8.09,7.52,7.52,0,0,0,.41,2.81C132.63,349.44,134.51,351.08,137.18,350.82ZM114.84,61.23a39.68,39.68,0,0,0,9.85-.68,46.19,46.19,0,0,0,7.05-2.15,12.11,12.11,0,0,0,6.31-4.59A14.22,14.22,0,0,0,139.7,50c.12-.42.23-1.1-.3-1.28s-.48.52-.72.8a5.55,5.55,0,0,1-.42.42c-2.5,2.52-5.69,3.59-9.06,4.19-2.06.37-4.14.65-6.25.82a38.59,38.59,0,0,1-12.46-.61,3.67,3.67,0,0,1-3.21-3.59.7.7,0,0,0-.68-.68c-.41,0-.52.28-.62.6a24.53,24.53,0,0,0-.73,4c-.44,3.3,0,4.9,3.66,6C111.17,61.41,113.43,61,114.84,61.23Zm97.21,263.19a9.65,9.65,0,0,0-2.79,6.73,26.23,26.23,0,0,1-.08,4.77,12.62,12.62,0,0,1-4.78,7.26c-2.58,2.13-5.69,2.06-8.76,1.79a3.28,3.28,0,0,1-2-.64,6,6,0,0,1-2.14-5.39,18.1,18.1,0,0,1,1.87-5.12c.47-1,1.27-2,1.19-3.2,0-.36,0-.8-.46-.87s-.47.35-.57.65a36.53,36.53,0,0,1-1.87,4c-1.67,3.44-3,7-2.28,10.89.59,3.26,2.56,5.34,6.21,5.52a11,11,0,0,0,7.91-2.54,11.79,11.79,0,0,0,2.87-2.66c2.09-3.51,4-7,4.78-11.19.58-3.24.11-6.55,1.06-9.71C212.22,324.66,212.14,324.58,212.05,324.42Zm-12.73-5.54c-.68.07-1,.34-1.16.79s-.37.92-1,1c-.44,0-.66.41-.83.79a1.63,1.63,0,0,1-1.74,1c-1.62-.08-2.43,1.09-3.4,2.07-.68.68-1,1.82-2.51,1.34a5.94,5.94,0,0,0-3.13-.34,10.82,10.82,0,0,0-6.4,4.45,54.87,54.87,0,0,0-4.34,6.26,21.13,21.13,0,0,1-7.69,7.68,13.42,13.42,0,0,0-2.72,2.15c-.2.2-.43.4-.21.71s.57.36.74.17c.7-.8,1.94-.69,2.55-1.6a1.77,1.77,0,0,1,.88-.59,15.33,15.33,0,0,0,5.24-3.84,44.53,44.53,0,0,0,4.54-6.42c1.81-2.77,4.14-4.56,7.71-4,1.17.18,1.83,1.17,1.22,2.09-.23.33-.4.66,0,.92s.62-.07.8-.41c.88-1.64,1.68-3.34,2.69-4.9.69-1.07,1.2-2.59,2.57-2.82a9.89,9.89,0,0,0,3.54-1.72A5.71,5.71,0,0,0,199.32,318.88ZM92.79,314.7a14.41,14.41,0,0,0-.82,1.71,15.53,15.53,0,0,0-1.6,4.95c-.18,2.07-.24,4.15-.54,6.19a25.18,25.18,0,0,0-.48,7c.21,1.55,1.26,3.25,2.51,3.63a3.82,3.82,0,0,0,4.25-1.37c.5-.63.86-1.35,1.36-2,.86-1.05,1.56-2.41,3.34-1.86a.91.91,0,0,0,1-.43,10.18,10.18,0,0,0,1.35-2.1c.45-1.34,1.16-1.64,2.59-1.5.75.07,1.63.33,2.11-.64a5.56,5.56,0,0,0,.59-2.3c0-.3,0-.57-.31-.72a.6.6,0,0,0-.84.18c-.3.42-.67.32-1.08.25a2.54,2.54,0,0,0-2.72,1.46,18.31,18.31,0,0,1-1.2,2.07,1,1,0,0,1-1.16.65c-1.46-.34-2.32.53-3.18,1.45a6.82,6.82,0,0,1-.91.95c-.9.69-2,1.25-3.06.73s-2.28-1.33-2.34-2.79a68.7,68.7,0,0,1,1.31-14A1.66,1.66,0,0,0,92.79,314.7Zm43.46-15.36c-.46.24-.89.32-1.08.81-1.17,2.91-2.53,5.76-3.09,8.88-.42,2.39-.91,4.86,1.55,6.62.4.29.34.74.15,1.2-.55,1.3-1.6,2.3-2.16,3.62-.92,2.17-2.16,4.22-1,6.7a2.33,2.33,0,0,0,3.19,1.12,6,6,0,0,0,2.78-3.47,4.14,4.14,0,0,0-.11-3.05c-.15-.35-.38-.75-.84-.77s-.43.41-.56.68-.34.56-.72.53-.54-.32-.63-.64-.37-.8-.21-1.27a10.82,10.82,0,0,1,1.8-3.86,18.18,18.18,0,0,0,2.75-4.73c.46-1.08.24-1.45-.94-1.59a3.14,3.14,0,0,1-2.47-3.57C135.21,304.21,135.69,301.85,136.25,299.34Zm94.68,15.58c-1.76,2-2.15,4.36-2.52,6.62-.56,3.41-.93,6.87-1.19,10.32a10.68,10.68,0,0,0,.54,4.6,3.09,3.09,0,0,0,4.33,1.77,6.81,6.81,0,0,0,2-1.81c.71-.83,1.36-2.12,2.49-2,2.29.16,3.07-1.8,4.48-2.81a5.78,5.78,0,0,0,1.8-3.29c.1-.34.21-.68-.11-.85s-.48.23-.61.44c-.75,1.27-2.42,1.65-3,3.13-.16.41-.79.44-1.2.36a2.59,2.59,0,0,0-2.34.89,4.53,4.53,0,0,1-1.27.88c-1.71.71-4.54.41-4.65-1.84a44.39,44.39,0,0,1,.51-10.23C230.61,319.09,231.25,317.14,230.93,314.92ZM217.24,309c-1,.69-1.55,1.73-2,3.64a69.36,69.36,0,0,0-1.37,9.29,15.35,15.35,0,0,1-.36,3.4c-.6,1.69,0,3.14.27,4.67a2.83,2.83,0,0,0,2.51,2.26,2.54,2.54,0,0,0,2.6-1,8.75,8.75,0,0,0,1.83-5.18c0-.86-.43-1.6-1.21-1.68s-1.06.73-1.23,1.4c-.1.39-.05.86-.57.92a1.31,1.31,0,0,1-1.26-.55,2.89,2.89,0,0,1-.52-1.7c0-1.23,0-2.47,0-3.7C216,316.8,216.78,312.92,217.24,309ZM173,49.18a6.9,6.9,0,0,0-.26-2.24,2.76,2.76,0,0,0-2-1.75c-.85-.16-1.38.47-2,1.08-.87.88-.88,2.14-1.57,3a3.81,3.81,0,0,0-.69,2.47,1.68,1.68,0,0,0,1.9,1.78c.54,0,1.13-.21,1.37.37s-.28.92-.62,1.31c-1.82,2.12-4.28,3.43-6.43,5.12-.24.2-.61.36-.4.75s.55.3.86.21a21.33,21.33,0,0,0,2.49-.82c1.6-.7,3.47-.95,4.5-2.66.49-.82.79-1.73,1.24-2.54A15.35,15.35,0,0,0,173,49.18ZM127.28,326.75a4.39,4.39,0,0,0-.33-2.09,2,2,0,0,0-1.72-1.28,1.76,1.76,0,0,0-1.88.74,33.53,33.53,0,0,0-1.7,3.39,6.82,6.82,0,0,0-.43,1.74c-.16,1.2.85,2,2.49,1.95.31,0,.66-.12.85.24s0,.52-.26.71c-1.62,1.46-3,3.24-5,4.25a10.34,10.34,0,0,0-1.2.79.72.72,0,0,0-.37.91c.18.42.54.2.83.1,1-.33,2-.72,3-1a4.36,4.36,0,0,0,2.41-1.4A13.82,13.82,0,0,0,127.28,326.75Zm3.49-289.27c0-2.18-.19-2.38-2.16-3.61-.64-.4-1-.26-1.24.26a15.86,15.86,0,0,0-1.13,2.35c-.38,1.08-.79.81-1.21.09a7.8,7.8,0,0,0-1.89-2.08c-.8-.65-1.28-.62-1.72.33-.34.72-.78,1.39-1.14,2.1-1.13,2.23-1.12,2.23.91,3.85a2.19,2.19,0,0,1,.34.34c.72.85,1.41.59,2-.11a13.66,13.66,0,0,0,1.14-1.67c.26-.42.6-.46.85-.1.48.69,1.26,1,1.86,1.49a1.46,1.46,0,0,0,2.32-.25C130.36,39.53,131.08,38.58,130.77,37.48ZM101.6,32a7.23,7.23,0,0,0-2.34-3.09c-.76-.47-1.17-.54-1.64.43a13.37,13.37,0,0,1-1.42,3c-.22.27-.67.54-.64,0,.08-1.49-1.11-2-1.89-2.86s-1.33-.83-1.92.33c-.41.82-.77,1.65-1.2,2.45-.92,1.7-.8,2.29.76,3.38.19.13.42.22.62.36,1.06.74,1.58.65,2.32-.43,1.23-1.79,1.23-1.79,3-.41a3,3,0,0,1,.53.48,1.16,1.16,0,0,0,1.95.1A12,12,0,0,0,101.6,32Zm72.6,296.91A8.11,8.11,0,0,0,171,323c-.4-.22-.56,0-.8.25a6.86,6.86,0,0,0-1.06,2.13c-1.31,2.69-1.28,2.71.69,4.88l.17.17c1.48,1.68,1.35,2.43-.44,3.82a24.62,24.62,0,0,0-3.55,3.14c-.25.29-.56.68-.23,1.07a.64.64,0,0,0,.88,0,11.91,11.91,0,0,1,2.7-1.22c1.22-.56,2.41-1.2,2.76-2.74a7.71,7.71,0,0,1,.93-2.05A15,15,0,0,0,174.2,328.86ZM116.6,328c.2-2-1.21-3.67-3.17-5-.32-.22-.71-.2-.75.21-.16,1.56-1.12,2.77-1.73,4.13a1.07,1.07,0,0,0,.3,1.49,6.94,6.94,0,0,1,1.86,2.44A1.47,1.47,0,0,1,113,333a16.45,16.45,0,0,1-3.94,3.78c-.48.37-1.11.77-.75,1.42s.88-.07,1.22-.22c1.19-.52,2.66-.48,3.59-1.46A11.85,11.85,0,0,0,116.6,328ZM97.48,346.35c.14-1.12-1.58-3.23-2.6-3.33a.75.75,0,0,0-.86.47,7,7,0,0,0-.91,1.93,1,1,0,0,1-.87.89c-.58.1-.49-.48-.63-.82a5.14,5.14,0,0,0-2.23-2.22c-.37-.25-.63,0-.9.32a6.79,6.79,0,0,0-1.13,2.6c-.25.71-1.12,1.18-.92,2s1.18.9,1.58,1.56a1,1,0,0,0,.27.23,1.42,1.42,0,0,0,2.18-.13c.55-.54.67-1.76,1.56-1.61.68.11,1.24.92,1.85,1.42s1.25.68,1.82.06A11.61,11.61,0,0,0,97.48,346.35ZM200.73,310c.15-1.51-.89-2.23-1.77-3-.59-.52-1.08-.42-1.59.26a13.29,13.29,0,0,0-1.16,2.48c-.12.25-.27.51-.6.51s-.3-.22-.31-.41c-.1-1.45-1.33-2-2.25-2.75-.39-.33-.66-.3-1,.27a23,23,0,0,0-1.76,3.77c-.52,1.41,1,1.81,1.76,2.6a1,1,0,0,0,1.58.13l.17-.17a3.71,3.71,0,0,0,.84-1.15c.3-.66.71-1.09,1.42-.32a19.26,19.26,0,0,0,1.51,1.34c.37.33.79.54,1.17.15C199.76,312.57,200.89,311.54,200.73,310ZM18.17,320a1,1,0,0,0,.87-.56c.21-.37.47-.73.71-1.09.52-.77.92-1,1.73-.15,1.78,1.89,2.41,1.76,3.81-.44.17-.27.32-.56.51-.82.76-1,.33-2-.31-2.83a5,5,0,0,0-1.65-1.34c-.64-.36-1-.36-1.18.47a5.46,5.46,0,0,1-1.18,2.06c-.34.5-.7.65-1-.1a4.9,4.9,0,0,0-1.64-1.86c-.78-.65-1.48-.39-1.86.56a10.78,10.78,0,0,1-.76,1.74c-1.27,2.1-1.3,2.11.67,3.53C17.3,319.46,17.58,320,18.17,320ZM155.45,39.78c0-.33,0-.71-.33-.83s-.39.29-.55.49a10.52,10.52,0,0,0-1,2.24c-1.87,3.67-1.88,7.74-2.67,11.64-.32,1.6-.88,3.12-1.22,4.71-.12.57-.67,1.26,0,1.56s.9-.61,1.11-1c1.36-2.82,2.83-5.54,3.37-8.76S154.23,43,155.45,39.78ZM85,46.47c-.06-.29.15-.91-.4-1s-.81.47-.92.93c-.28,1.16-.63,2.3-1,3.44a14.37,14.37,0,0,1-4.33,7,29.43,29.43,0,0,0-3.85,3.11c-.25.3-.7.51-.49,1s.66.37,1,.41c.81.09,1.42-.48,2.14-.67a7.43,7.43,0,0,0,4.17-2.74C83.88,54.55,84,50.42,85,46.47Zm68.81,14.8a13.7,13.7,0,0,0,5-2c1.76-1.27,2.28-3.22,3-5.12a42,42,0,0,0,1.57-7.66c0-.3.17-.8-.38-.86s-.63.32-.7.69c-.32,1.65-1.06,3.16-1.52,4.76a12.21,12.21,0,0,1-4.9,6.63c-1,.73-1.86,1.61-2.79,2.4-.25.21-.63.49-.44.9S153.18,61.24,153.79,61.27Zm-16.65,0c1.27.11,2.14-.6,3.14-.86a6.62,6.62,0,0,0,3.83-3.06c2.09-3.3,2.11-7.23,3.13-10.86.11-.37.09-.87-.38-1s-.6.32-.71.65c-.44,1.28-.82,2.57-1.27,3.85a21.54,21.54,0,0,1-1.28,3.27c-1.6,2.86-4.41,4.52-6.74,6.67-.29.27-.75.44-.64.91S136.92,61.22,137.14,61.27ZM167,317.78c-.67,1.23-1.35,2.34-1.88,3.52a20.22,20.22,0,0,0-1.28,5.86,19.48,19.48,0,0,1-.58,3.51,52.83,52.83,0,0,0-1.17,5.34c0,.18-.16.5.14.6a.52.52,0,0,0,.7-.29c1-2.32,2.61-4.41,3.05-7,.5-2.92.92-5.87,1.23-8.83C167.25,319.69,167.71,318.73,167,317.78Zm-14.77,21a8.88,8.88,0,0,1,1.87-.69,7.92,7.92,0,0,0,4.4-2.43c.92-1.06,1.19-2.45,1.74-3.71,1-2.3,1-4.78,1.69-7.13a.71.71,0,0,0-.51-.85.45.45,0,0,0-.67.44c0,1.12-.82,2-.92,3.07a10.63,10.63,0,0,1-1.86,4.33,16,16,0,0,1-4.79,4.59,6.45,6.45,0,0,0-1.4,1.46C151.37,338.33,151.58,338.66,152.19,338.77Zm-64.38-13.7c-.09-.6.17-1.2-.31-1.26a1,1,0,0,0-1,.81,27.77,27.77,0,0,1-1.66,5.29,10.07,10.07,0,0,1-2.9,4.11c-1.24,1.06-2.54,2-3.87,3-.28.19-.62.43-.42.88s.56.41.92.38A8.58,8.58,0,0,0,84,335.89c1.18-1.14,1.54-2.68,2.16-4.12C87.08,329.54,86.9,327.07,87.81,325.07Zm138.63-.33c.09-.33.2-.77-.3-.85s-.58.18-.66.54c-.13.57-.38,1.11-.55,1.68a22.49,22.49,0,0,1-1.8,5.11,16.07,16.07,0,0,1-5.37,5.13,4.05,4.05,0,0,0-1.19,1.14c-.19.28-.5.62-.16.95a1,1,0,0,0,1,.18c.68-.24,1.34-.51,2-.73a7.63,7.63,0,0,0,3.23-1.68,11.51,11.51,0,0,0,2.48-4.71A58.82,58.82,0,0,0,226.44,324.74ZM10,330.85c0-.62.08-1.12-.43-1.2s-.48.39-.6.73a29.6,29.6,0,0,0-1.22,3.33c-.82,3.7-3.14,6.22-6.16,8.26a7.07,7.07,0,0,0-1.47,1.52.67.67,0,0,0,0,.89c.23.24.49.08.77,0a20.38,20.38,0,0,0,3.3-1.3,5.74,5.74,0,0,0,2.91-2.36,25.79,25.79,0,0,0,1.91-5.34C9.55,333.86,9.61,332.2,10,330.85ZM166.24,34.38a4.22,4.22,0,0,0-2-3.28c-1-.78-1.69-.78-2,.37a16.92,16.92,0,0,1-1.33,2.78c-.33.66-.71,1.42,0,2.09s1.2,1.06,1.81,1.56a1,1,0,0,0,1.23.08A6.62,6.62,0,0,0,166.24,34.38Zm-67.6-9.09c-.33-1.41-.74-2.61-2.14-3.31-1.08-.54-1.52-.52-1.92.61a16,16,0,0,1-1,2.11c-.33.64-1,1.37-.57,2.08A5.77,5.77,0,0,0,95.34,29a.9.9,0,0,0,1-.11A7.91,7.91,0,0,0,98.64,25.29ZM204.15,333.23a3.28,3.28,0,0,0-1.49-2.54c-1.81-1.22-1.74-1.32-2.87.5-1.73,2.8-1.67,3.22.64,5.05a3.49,3.49,0,0,0,1.45.5.5.5,0,0,0,.53-.17A6.43,6.43,0,0,0,204.15,333.23Zm-6.06-30.65a3.67,3.67,0,0,0-2.47-2.29,1.1,1.1,0,0,0-1.2.55,24.14,24.14,0,0,0-1.23,2.57c-.3.57-.65,1.26-.12,1.78a6.86,6.86,0,0,0,2.55,2.08.91.91,0,0,0,.75-.28A6.24,6.24,0,0,0,198.09,302.58Zm29.36,10.55a7,7,0,0,0-1.13-1.86c-1.28-1.77-1.76-1.69-2.77.28-.17.32-.39.6-.57.91-1.27,2.08-.62,4.05,1.62,4.88a.66.66,0,0,0,.44,0C226,316.93,227.47,314.6,227.45,313.13ZM23.26,309.25c0-1.33-.8-2-1.57-2.66s-1.59-.7-1.93.32a9.93,9.93,0,0,1-1.05,2,2.82,2.82,0,0,0,1.89,4.26,1,1,0,0,0,.88-.28A6.63,6.63,0,0,0,23.26,309.25Z"
         id="path1" />
      <path
         class="cls-2"
         d="M45.26,179.24c2.72-3.33,5.43-6.68,8.16-10q5.56-6.81,11.16-13.59a3.25,3.25,0,0,0,.72-2.2c0-11,0-22,0-33,0-1.14.27-1.48,1.44-1.47,10.63,0,21.26,0,31.89,0a4.17,4.17,0,0,0,2.82-1q11.35-9.18,22.78-18.27c.42-.33.55-1.18,1.38-.9h0c2.51,2.42,5.37,4.4,8.08,6.58,5.59,4.51,11.26,8.92,16.87,13.42a2.69,2.69,0,0,0,1.85.59q16.08,0,32.16,0c1.57,0,1.57,0,1.57,1.52,0,10.56,0,21.11,0,31.67a3.9,3.9,0,0,0,1,2.8c2.86,3.34,5.59,6.78,8.38,10.17,3.68,4.44,7.39,8.87,11.08,13.31a2.71,2.71,0,0,1,.2.42c.15.36-.13.6-.26.88a8.08,8.08,0,0,0-.65.66q-9.37,11.35-18.77,22.7a2.74,2.74,0,0,0-.67,1.94q0,16.56,0,33.1c0,2.39,0,2.39-2.44,2.39H151.79a2.84,2.84,0,0,0-2,.58q-11.35,9.56-22.75,19.06a1.55,1.55,0,0,1-1.26.12,9.78,9.78,0,0,1-2.87-2.11c-6.92-5.66-13.87-11.29-20.76-17a5.81,5.81,0,0,0-4-1.43c-10.64.07-21.27,0-31.91.06-1.16,0-1.45-.34-1.44-1.48,0-10.83,0-21.67,0-32.5A3.57,3.57,0,0,0,64,204c-3.44-4.25-6.84-8.53-10.26-12.8l-8.26-10.26-.26-.33c0-.15,0-.3,0-.44A1.07,1.07,0,0,1,45.26,179.24Z"
         id="path2" />
      <path
         class="cls-3"
         d="M206.43,180.27c.13-.28.41-.52.26-.88.79.37,1.14,1.16,1.64,1.78q9,11.16,17.91,22.36a2.56,2.56,0,0,1,.6,1.73q0,37,0,73.91c0,1.11-.34,1.29-1.33,1.28q-28.44,0-56.87,0c-5.52,0-11,0-16.55,0a3.67,3.67,0,0,1-2.49-.9c-7.36-5.89-14.76-11.73-22.11-17.63a1.23,1.23,0,0,0-1.86,0c-7.69,6.2-15.4,12.35-23.09,18.53a2.51,2.51,0,0,1-1.73.62q-37.08,0-74.14,0c-1,0-1.07-.39-1.07-1.18q0-17.88,0-35.76,0-19,0-38a2.76,2.76,0,0,1,.57-1.87q9.21-11.52,18.4-23a6.35,6.35,0,0,1,.58-.58l.26.33a7.75,7.75,0,0,0-.11.94q0,29.38.06,58.76,0,9.6,0,19.19c0,.8.12,1.07,1,1.05,2.91-.07,5.83,0,8.75,0l61.74-.06h8.88a1.55,1.55,0,0,0,1.26-.12l33.7,0q22.26,0,44.51,0c1.19,0,1.44-.34,1.4-1.46-.12-3.11,0-6.23,0-9.34,0-13,0-25.91.06-38.87,0-5.19-.08-10.39-.1-15.58,0-4.68,0-9.36,0-14C206.61,181,206.77,180.61,206.43,180.27Z"
         id="path3"
         style="fill:#d4d4d4;fill-opacity:1" />
      <path
         class="cls-3"
         d="M125.56,98.92a22.43,22.43,0,0,1,4.13-3.53c6.69-5.4,13.41-10.74,20.11-16.12a2.21,2.21,0,0,1,1.51-.54q37.24,0,74.5,0c.88,0,1,.28,1,1.08q0,28.36,0,56.74c0,5.44,0,10.88,0,16.32a4.83,4.83,0,0,1-1.13,3.36c-6,7.37-11.83,14.79-17.74,22.18a2,2,0,0,1-.91.85,4.7,4.7,0,0,1-.2-2.1q0-32.58,0-65.15c0-4,0-8,0-12,0-.86-.23-1-1.06-1q-30.36,0-60.7,0c-6.52,0-13,.08-19.55-.07Z"
         id="path4"
         style="fill:#d4d4d4;fill-opacity:1" />
      <path
         class="cls-3"
         d="M45.26,179.24a1.07,1.07,0,0,0-.11.92c-.72-.29-1-1-1.43-1.56q-9.13-11.34-18.21-22.72a2.08,2.08,0,0,1-.49-1.41q0-37.18,0-74.37c0-.94.38-1,1.13-1q17.92,0,35.86,0h37.9a3,3,0,0,1,2,.6q11.36,9.09,22.76,18.15c.25.2.47.42.71.64-.19.42-.56.31-.84.31-6.55.06-13.11.14-19.66.14Q82,99,59.16,98.88c-4.12,0-8.24-.06-12.35-.08-1.57,0-1.57,0-1.57,1.54q0,20.57,0,41.13c0,6-.16,12.08-.06,18.11C45.28,166.14,45.17,172.69,45.26,179.24Z"
         id="path5"
         style="fill:#d4d4d4;fill-opacity:1" />
      <path
         class="cls-1"
         d="M134.13,0c-.77,1.28-.95,2.77-1.77,4.08a40.11,40.11,0,0,1-5,6.27c-1.94,2-3.89,4.08-6,5.94-3.41,3-6.62,6.21-10.29,8.9-.76.55-1.22,1.42-2.18,1.81-.46.18-.33.91-.38,1.42-.3,3.5-.13,7-.42,10.5s-1.52,6.91-4.4,9.28a10.31,10.31,0,0,1-3.75,2,16.83,16.83,0,0,0-5.17,2.28c-1.19.84-1.52,2.3-2.24,3.47-1,1.7-2.13,3.2-4.25,3.87-1.34.43-2.65,1-4,1.35a3.79,3.79,0,0,1-.82.13c-.27,0-.59,0-.69-.36s.23-.45.46-.59C85.44,59,87.82,57.86,89.74,56c.06-.06.14-.09.19-.15.46-.64,1.52-1.09,1.45-1.81-.09-1-1.25-.38-1.91-.63-1.77-.68-2.24-1.6-1.4-3.28.45-.92.85-1.87,1.35-2.77s1.06-2.08,2.34-1.92a3.52,3.52,0,0,1,2.52,2c.36.61.06,1.65.83,1.85s1.22-.64,1.86-.94a1.34,1.34,0,0,1,.93-.15,1.26,1.26,0,0,0,1.44-.56,1.69,1.69,0,0,1,1.52-.74c1.18.07,1.33-1.61,2.78-1.63,1.08,0,1.64-1.45,1.88-2.54a16.39,16.39,0,0,0,.2-5.59A13.29,13.29,0,0,1,107,30.06c.71-1.66,1.8-3.13,2.26-4.9s1.93-2.49,2.94-3.69c2.39-2.86,5.56-4.9,8.19-7.5,2-2,4.11-3.87,6-6s4-4.18,6-6.29A8.88,8.88,0,0,1,134.13,0Z"
         id="path6"
         style="fill:#ffffff;fill-opacity:1" />
      <path
         class="cls-1"
         d="M28.8,322.5a17.3,17.3,0,0,1,1.63-8.23,21,21,0,0,1,6.48-8.55c3.22-2.57,6.53-5,9.67-7.72,3.66-3.13,7-6.54,10.47-9.9.24-.25.42-.7.84-.37s.11.64-.09.95a32.6,32.6,0,0,1-4.16,5.93c-1.28,1.31-2.58,2.57-4,3.76-1.81,1.53-3.67,3-5.35,4.71a23.28,23.28,0,0,1-4.1,3.22c-2,1.24-3.7,2.76-5.55,4.15-.4.31-.87.55-1.25.89a4.18,4.18,0,0,0-1.75,3.73,43.93,43.93,0,0,1-.37,5.46A24.32,24.32,0,0,1,31,325c-.7,2.94-1.77,5.71-4.41,7.46A20.9,20.9,0,0,1,23.19,334c-1.07.45-2.14.88-3.22,1.28-1.93.71-2.76,2.37-3.64,4a7,7,0,0,1-4.95,4,17.54,17.54,0,0,0-2.92,1c-.42.16-.93.45-1.19,0s.22-.87.63-1.1a31.57,31.57,0,0,0,5.82-3.75c.14-.14.37-.21.46-.37.3-.54,1.2-.84,1-1.52s-1-.32-1.59-.38a1.82,1.82,0,0,1-1.66-2.53,10.66,10.66,0,0,1,1.52-3.63c.57-.73,1.23-1.56,2.23-1.35a3.12,3.12,0,0,1,2.23,2.16c.53,1.56,1.16,1.79,2.38.66a1.81,1.81,0,0,1,1.57-.63,1.17,1.17,0,0,0,1.08-.4c.41-.42.79-.94,1.51-.52a.39.39,0,0,0,.34,0c.69-1.46,2.69-1.2,3.41-2.63a8.83,8.83,0,0,0,.72-4.39C28.9,323.46,28.84,323,28.8,322.5Z"
         id="path7"
         style="fill:#ffffff;fill-opacity:1" />
      <path
         class="cls-1"
         d="M26.41,343.75a27.27,27.27,0,0,1,2.59-10c.95-2,2.26-3.84,2.66-6.07.1-.52.49-.93,1-.78s.32.69.16,1.08c-1.23,3.08-2.64,6.1-3.63,9.25-.44,1.4-1.36,2.85-.6,4.56a5.13,5.13,0,0,0,2.84,2.9,8.2,8.2,0,0,0,6.37-.21,10.06,10.06,0,0,0,5.3-5.05,1.34,1.34,0,0,0-.92-2c-3-.73-3.36-2.3-2.49-5.38,1.2-4.27,4.09-7.39,7.19-10.35a11.24,11.24,0,0,1,3.77-2.19c.7-.28,1.16.11,1,.83a11.12,11.12,0,0,1-1.58,3.84c-.36.52-.72.9-1.46.52s-1.21.16-1.73.51a14.61,14.61,0,0,0-4.3,3.91c-1,1.48-.73,2.32,1,2.78a2.08,2.08,0,0,1,1.68,2.38,20.94,20.94,0,0,1-1.35,7.1,17.06,17.06,0,0,1-2.46,4.85c-1.1,1.36-2.17,2.92-3.76,3.6-2.61,1.12-5.42,1.76-8.2.42a4.52,4.52,0,0,1-2.4-2.82C26.76,346.17,26.06,345.08,26.41,343.75Z"
         id="path8"
         style="fill:#ffffff;fill-opacity:1" />
      <path
         class="cls-1"
         d="M63.73,350.8c-1.2.33-2.42-.34-3.64-.9-1.42-.65-1.69-2.16-2.26-3.38-1.15-2.43-.26-5,.19-7.34a19.18,19.18,0,0,1,2.15-5.86c1.1-1.93,1.7-4.08,2.91-5.95.16-.24.19-.71.64-.49a.6.6,0,0,1,.24.84c-1,2-1.4,4.17-2.48,6.11a15,15,0,0,0-1.95,6.92,4.4,4.4,0,0,0,3.08,3.95c3.43,1.27,6.33,0,9-1.91a8.52,8.52,0,0,0,2.52-3.28c.48-1.07.25-1.61-.84-2.07a10.69,10.69,0,0,1-1.34-.48c-1.67-1-2-3.46-1.1-5.71a24.07,24.07,0,0,1,4.38-7,15.91,15.91,0,0,1,6.44-4.81c1-.35,1.2.33,1.07,1a17.62,17.62,0,0,1-1.73,4,.71.71,0,0,1-.86.28,2.31,2.31,0,0,0-2.6.63c-1.5,1.22-3.18,2.24-4.22,4-.51.86-.66,1.58.5,2a3.28,3.28,0,0,1,2.47,4,27.23,27.23,0,0,1-.94,5,19.33,19.33,0,0,1-3.77,6.94A9.84,9.84,0,0,1,63.73,350.8Z"
         id="path9"
         style="fill:#ffffff;fill-opacity:1" />
      <path
         class="cls-1"
         d="M137.18,350.82c-2.67.26-4.55-1.38-5.68-4a7.52,7.52,0,0,1-.41-2.81,19.12,19.12,0,0,1,1.74-8.09,71.29,71.29,0,0,1,3.71-8c.2-.33.27-.87.81-.67s.4.68.24,1c-.6,1.34-1.3,2.64-1.85,4-1.07,2.68-2.28,5.36-2.4,8.28s1.51,4.25,4.48,4.55c4.48.46,8-1.65,10.12-5.81a1,1,0,0,0-.55-1.62,8.94,8.94,0,0,0-1.34-.49,2.69,2.69,0,0,1-2.14-3.3,10.76,10.76,0,0,1,1.43-4.26c1.75-2.91,3.55-5.79,6.36-7.83a14.39,14.39,0,0,1,3.29-2.16c1-.37,1.39-.09,1.33,1-.09,1.6-1.21,2.74-1.79,4.12a.31.31,0,0,1-.49.15c-1.34-1-2.43.14-3.21.73a12.72,12.72,0,0,0-3.85,4c-.56,1.05-.15,1.56.69,2,2.2,1.14,2.93,2.68,2.18,5.05-.38,1.21-.64,2.45-1,3.67a15.53,15.53,0,0,1-4.33,7.54A9.66,9.66,0,0,1,137.18,350.82Z"
         id="path10"
         style="fill:#ffffff;fill-opacity:1" />
      <path
         class="cls-1"
         d="M114.84,61.23c-1.41-.22-3.67.18-5.93-.52-3.65-1.13-4.1-2.73-3.66-6a24.53,24.53,0,0,1,.73-4c.1-.32.21-.64.62-.6a.7.7,0,0,1,.68.68,3.67,3.67,0,0,0,3.21,3.59A38.59,38.59,0,0,0,123,55c2.11-.17,4.19-.45,6.25-.82,3.37-.6,6.56-1.67,9.06-4.19a5.55,5.55,0,0,0,.42-.42c.24-.28.26-1,.72-.8s.42.86.3,1.28a14.22,14.22,0,0,1-1.65,3.77,12.11,12.11,0,0,1-6.31,4.59,46.19,46.19,0,0,1-7.05,2.15A39.68,39.68,0,0,1,114.84,61.23Z"
         id="path11"
         style="fill:#ffffff;fill-opacity:1" />
      <path
         class="cls-1"
         d="M212.05,324.42c.09.16.17.24.16.3-1,3.16-.48,6.47-1.06,9.71-.75,4.19-2.69,7.68-4.78,11.19a11.79,11.79,0,0,1-2.87,2.66,11,11,0,0,1-7.91,2.54c-3.65-.18-5.62-2.26-6.21-5.52-.71-3.88.61-7.45,2.28-10.89a36.53,36.53,0,0,0,1.87-4c.1-.3.18-.71.57-.65s.44.51.46.87c.08,1.24-.72,2.17-1.19,3.2a18.1,18.1,0,0,0-1.87,5.12,6,6,0,0,0,2.14,5.39,3.28,3.28,0,0,0,2,.64c3.07.27,6.18.34,8.76-1.79a12.62,12.62,0,0,0,4.78-7.26,26.23,26.23,0,0,0,.08-4.77A9.65,9.65,0,0,1,212.05,324.42Z"
         id="path12"
         style="fill:#ffffff;fill-opacity:1" />
      <path
         class="cls-1"
         d="M199.32,318.88a5.71,5.71,0,0,1-2.67,4.71,9.89,9.89,0,0,1-3.54,1.72c-1.37.23-1.88,1.75-2.57,2.82-1,1.56-1.81,3.26-2.69,4.9-.18.34-.38.69-.8.41s-.22-.59,0-.92c.61-.92-.05-1.91-1.22-2.09-3.57-.53-5.9,1.26-7.71,4a44.53,44.53,0,0,1-4.54,6.42,15.33,15.33,0,0,1-5.24,3.84,1.77,1.77,0,0,0-.88.59c-.61.91-1.85.8-2.55,1.6-.17.19-.55.09-.74-.17s0-.51.21-.71a13.42,13.42,0,0,1,2.72-2.15,21.13,21.13,0,0,0,7.69-7.68,54.87,54.87,0,0,1,4.34-6.26,10.82,10.82,0,0,1,6.4-4.45,5.94,5.94,0,0,1,3.13.34c1.56.48,1.83-.66,2.51-1.34,1-1,1.78-2.15,3.4-2.07a1.63,1.63,0,0,0,1.74-1c.17-.38.39-.76.83-.79.64-.05.87-.4,1-1S198.64,319,199.32,318.88Z"
         id="path13"
         style="fill:#ffffff;fill-opacity:1" />
      <path
         class="cls-1"
         d="M92.79,314.7a1.66,1.66,0,0,1,.21,1.51,68.7,68.7,0,0,0-1.31,14c.06,1.46,1.19,2.25,2.34,2.79s2.16,0,3.06-.73a6.82,6.82,0,0,0,.91-.95c.86-.92,1.72-1.79,3.18-1.45a1,1,0,0,0,1.16-.65,18.31,18.31,0,0,0,1.2-2.07,2.54,2.54,0,0,1,2.72-1.46c.41.07.78.17,1.08-.25a.6.6,0,0,1,.84-.18c.29.15.31.42.31.72a5.56,5.56,0,0,1-.59,2.3c-.48,1-1.36.71-2.11.64-1.43-.14-2.14.16-2.59,1.5a10.18,10.18,0,0,1-1.35,2.1.91.91,0,0,1-1,.43c-1.78-.55-2.48.81-3.34,1.86-.5.62-.86,1.34-1.36,2a3.82,3.82,0,0,1-4.25,1.37c-1.25-.38-2.3-2.08-2.51-3.63a25.18,25.18,0,0,1,.48-7c.3-2,.36-4.12.54-6.19a15.53,15.53,0,0,1,1.6-4.95A14.41,14.41,0,0,1,92.79,314.7Z"
         id="path14"
         style="fill:#ffffff;fill-opacity:1" />
      <path
         class="cls-1"
         d="M136.25,299.34c-.56,2.51-1,4.87-1.62,7.21a3.14,3.14,0,0,0,2.47,3.57c1.18.14,1.4.51.94,1.59a18.18,18.18,0,0,1-2.75,4.73,10.82,10.82,0,0,0-1.8,3.86c-.16.47.09.86.21,1.27s.26.61.63.64.57-.22.72-.53.16-.7.56-.68.69.42.84.77a4.14,4.14,0,0,1,.11,3.05,6,6,0,0,1-2.78,3.47,2.33,2.33,0,0,1-3.19-1.12c-1.13-2.48.11-4.53,1-6.7.56-1.32,1.61-2.32,2.16-3.62.19-.46.25-.91-.15-1.2-2.46-1.76-2-4.23-1.55-6.62.56-3.12,1.92-6,3.09-8.88C135.36,299.66,135.79,299.58,136.25,299.34Z"
         id="path15"
         style="fill:#ffffff;fill-opacity:1" />
      <path
         class="cls-1"
         d="M230.93,314.92c.32,2.22-.32,4.17-.69,6.14a44.39,44.39,0,0,0-.51,10.23c.11,2.25,2.94,2.55,4.65,1.84a4.53,4.53,0,0,0,1.27-.88,2.59,2.59,0,0,1,2.34-.89c.41.08,1,.05,1.2-.36.57-1.48,2.24-1.86,3-3.13.13-.21.29-.6.61-.44s.21.51.11.85a5.78,5.78,0,0,1-1.8,3.29c-1.41,1-2.19,3-4.48,2.81-1.13-.08-1.78,1.21-2.49,2a6.81,6.81,0,0,1-2,1.81,3.09,3.09,0,0,1-4.33-1.77,10.68,10.68,0,0,1-.54-4.6c.26-3.45.63-6.91,1.19-10.32C228.78,319.28,229.17,316.94,230.93,314.92Z"
         id="path16"
         style="fill:#ffffff;fill-opacity:1" />
      <path
         class="cls-1"
         d="M58.57,322.64l-.19.36a3.46,3.46,0,0,0-1.44,2.46l-.46.68a.88.88,0,0,0-.6,1.06.26.26,0,0,0-.12.15.48.48,0,0,0-.43.55,1.62,1.62,0,0,0-.39,1.05c-.34.46-.71.91-.44,1.55A1.27,1.27,0,0,0,55,332c.19.67.5.85.85.12s.63-1.08,1.41-.89c.4.58.92,1.11.77,1.91s-.93,1.36-.82,2.26l-.21.38c-.69.24-.58.92-.76,1.44l0,0a6.11,6.11,0,0,1-3.67.94l-.5-.35c0-.46-.11-.88-.64-1h0a1.06,1.06,0,0,0-.29-.75l0-.45a4,4,0,0,0,.1-2l.2-.36a11.7,11.7,0,0,0,1.67-3.89h0c.43-.09.44-.43.45-.76l1.29-1.8c.54-.58.77-1.08-.31-1.26h0a.55.55,0,0,0-.47-.52,12,12,0,0,1-1.43-2.54,1.3,1.3,0,0,0,0-1.06l.06-.61c.26-.31.63-.58.41-1.07l0-.87c.36-.19.38-.47.2-.8l0-.64c1-1.23,1-2.78,1.42-4.22l.25-.58a.45.45,0,0,0,.3-.61l.18-.59c.37-.28.74-.59,1.14,0l-.26,1.62c-.91.72-.67,1.75-.7,2.7,0,.79,0,1.58,0,2.37-.26.33,0,.43.23.51a.21.21,0,0,0,.1.16A1.7,1.7,0,0,0,58,320c.89,0,1.14.4.86,1.22C58.71,321.71,58.42,322.13,58.57,322.64Z"
         id="path17"
         style="fill:#ffffff;fill-opacity:1" />
      <path
         class="cls-1"
         d="M217.24,309c-.46,3.91-1.2,7.79-1.31,11.73,0,1.23,0,2.47,0,3.7a2.89,2.89,0,0,0,.52,1.7,1.31,1.31,0,0,0,1.26.55c.52-.06.47-.53.57-.92.17-.67.52-1.47,1.23-1.4s1.2.82,1.21,1.68a8.75,8.75,0,0,1-1.83,5.18,2.54,2.54,0,0,1-2.6,1,2.83,2.83,0,0,1-2.51-2.26c-.24-1.53-.87-3-.27-4.67a15.35,15.35,0,0,0,.36-3.4,69.36,69.36,0,0,1,1.37-9.29C215.69,310.74,216.28,309.7,217.24,309Z"
         id="path18"
         style="fill:#ffffff;fill-opacity:1" />
      <path
         class="cls-1"
         d="M173,49.18a15.35,15.35,0,0,1-1.56,6.1c-.45.81-.75,1.72-1.24,2.54-1,1.71-2.9,2-4.5,2.66a21.33,21.33,0,0,1-2.49.82c-.31.09-.68.12-.86-.21s.16-.55.4-.75c2.15-1.69,4.61-3,6.43-5.12.34-.39.87-.75.62-1.31s-.83-.42-1.37-.37a1.68,1.68,0,0,1-1.9-1.78,3.81,3.81,0,0,1,.69-2.47c.69-.88.7-2.14,1.57-3,.59-.61,1.12-1.24,2-1.08a2.76,2.76,0,0,1,2,1.75A6.9,6.9,0,0,1,173,49.18Z"
         id="path19"
         style="fill:#ffffff;fill-opacity:1" />
      <path
         class="cls-1"
         d="M127.28,326.75a13.82,13.82,0,0,1-3.23,9.07,4.36,4.36,0,0,1-2.41,1.4c-1,.26-2,.65-3,1-.29.1-.65.32-.83-.1a.72.72,0,0,1,.37-.91,10.34,10.34,0,0,1,1.2-.79c2-1,3.34-2.79,5-4.25.21-.19.44-.39.26-.71s-.54-.25-.85-.24c-1.64,0-2.65-.75-2.49-1.95a6.82,6.82,0,0,1,.43-1.74,33.53,33.53,0,0,1,1.7-3.39,1.76,1.76,0,0,1,1.88-.74,2,2,0,0,1,1.72,1.28A4.39,4.39,0,0,1,127.28,326.75Z"
         id="path20"
         style="fill:#ffffff;fill-opacity:1" />
      <path
         class="cls-1"
         d="M130.77,37.48c.31,1.1-.41,2.05-1.07,3a1.46,1.46,0,0,1-2.32.25c-.6-.52-1.38-.8-1.86-1.49-.25-.36-.59-.32-.85.1A13.66,13.66,0,0,1,123.53,41c-.59.7-1.28,1-2,.11a2.19,2.19,0,0,0-.34-.34c-2-1.62-2-1.62-.91-3.85.36-.71.8-1.38,1.14-2.1.44-1,.92-1,1.72-.33A7.8,7.8,0,0,1,125,36.57c.42.72.83,1,1.21-.09a15.86,15.86,0,0,1,1.13-2.35c.29-.52.6-.66,1.24-.26C130.58,35.1,130.77,35.3,130.77,37.48Z"
         id="path21"
         style="fill:#ffffff;fill-opacity:1" />
      <path
         class="cls-1"
         d="M101.6,32a12,12,0,0,1-1.86,3.74,1.16,1.16,0,0,1-1.95-.1,3,3,0,0,0-.53-.48c-1.78-1.38-1.78-1.38-3,.41-.74,1.08-1.26,1.17-2.32.43-.2-.14-.43-.23-.62-.36-1.56-1.09-1.68-1.68-.76-3.38.43-.8.79-1.63,1.2-2.45.59-1.16,1-1.26,1.92-.33s2,1.37,1.89,2.86c0,.49.42.22.64,0a13.37,13.37,0,0,0,1.42-3c.47-1,.88-.9,1.64-.43A7.23,7.23,0,0,1,101.6,32Z"
         id="path22"
         style="fill:#ffffff;fill-opacity:1" />
      <path
         class="cls-1"
         d="M174.2,328.86a15,15,0,0,1-1.14,3.65,7.71,7.71,0,0,0-.93,2.05c-.35,1.54-1.54,2.18-2.76,2.74a11.91,11.91,0,0,0-2.7,1.22.64.64,0,0,1-.88,0c-.33-.39,0-.78.23-1.07a24.62,24.62,0,0,1,3.55-3.14c1.79-1.39,1.92-2.14.44-3.82l-.17-.17c-2-2.17-2-2.19-.69-4.88a6.86,6.86,0,0,1,1.06-2.13c.24-.23.4-.47.8-.25A8.11,8.11,0,0,1,174.2,328.86Z"
         id="path23"
         style="fill:#ffffff;fill-opacity:1" />
      <path
         class="cls-1"
         d="M116.6,328a11.85,11.85,0,0,1-3.5,8.53c-.93,1-2.4.94-3.59,1.46-.34.15-.87.84-1.22.22s.27-1.05.75-1.42A16.45,16.45,0,0,0,113,333a1.47,1.47,0,0,0,.13-1.75,6.94,6.94,0,0,0-1.86-2.44,1.07,1.07,0,0,1-.3-1.49c.61-1.36,1.57-2.57,1.73-4.13,0-.41.43-.43.75-.21C115.39,324.35,116.8,326,116.6,328Z"
         id="path24"
         style="fill:#ffffff;fill-opacity:1" />
      <path
         class="cls-1"
         d="M97.48,346.35a11.61,11.61,0,0,1-1.79,3.36c-.57.62-1.23.43-1.82-.06s-1.17-1.31-1.85-1.42c-.89-.15-1,1.07-1.56,1.61a1.42,1.42,0,0,1-2.18.13,1,1,0,0,1-.27-.23c-.4-.66-1.38-.8-1.58-1.56s.67-1.28.92-2a6.79,6.79,0,0,1,1.13-2.6c.27-.29.53-.57.9-.32a5.14,5.14,0,0,1,2.23,2.22c.14.34,0,.92.63.82a1,1,0,0,0,.87-.89,7,7,0,0,1,.91-1.93.75.75,0,0,1,.86-.47C95.9,343.12,97.62,345.23,97.48,346.35Z"
         id="path25"
         style="fill:#ffffff;fill-opacity:1" />
      <path
         class="cls-1"
         d="M200.73,310c.16,1.59-1,2.62-2,3.69-.38.39-.8.18-1.17-.15a19.26,19.26,0,0,1-1.51-1.34c-.71-.77-1.12-.34-1.42.32a3.71,3.71,0,0,1-.84,1.15l-.17.17a1,1,0,0,1-1.58-.13c-.71-.79-2.28-1.19-1.76-2.6a23,23,0,0,1,1.76-3.77c.33-.57.6-.6,1-.27.92.77,2.15,1.3,2.25,2.75,0,.19,0,.42.31.41s.48-.26.6-.51a13.29,13.29,0,0,1,1.16-2.48c.51-.68,1-.78,1.59-.26C199.84,307.72,200.88,308.44,200.73,310Z"
         id="path26"
         style="fill:#ffffff;fill-opacity:1" />
      <path
         class="cls-1"
         d="M18.18,320c-.6,0-.88-.52-1.28-.82-2-1.42-1.94-1.43-.67-3.53a10.78,10.78,0,0,0,.76-1.74c.38-.95,1.08-1.21,1.86-.56a4.9,4.9,0,0,1,1.64,1.86c.29.75.65.6,1,.1a5.46,5.46,0,0,0,1.18-2.06c.16-.83.54-.83,1.18-.47a5,5,0,0,1,1.65,1.34c.64.87,1.07,1.79.31,2.83-.19.26-.34.55-.51.82-1.4,2.2-2,2.33-3.81.44-.81-.85-1.21-.62-1.73.15-.24.36-.5.72-.71,1.09A1,1,0,0,1,18.18,320Z"
         id="path27"
         style="fill:#ffffff;fill-opacity:1" />
      <path
         class="cls-1"
         d="M155.45,39.78c-1.22,3.22-.72,6.68-1.28,10s-2,5.94-3.37,8.76c-.21.43-.59,1.28-1.11,1s-.11-1,0-1.56c.34-1.59.9-3.11,1.22-4.71.79-3.9.8-8,2.67-11.64a10.52,10.52,0,0,1,1-2.24c.16-.2.18-.63.55-.49S155.45,39.45,155.45,39.78Z"
         id="path28"
         style="fill:#ffffff;fill-opacity:1" />
      <path
         class="cls-1"
         d="M85,46.47c-1,4-1.1,8.08-3.62,11.43a7.43,7.43,0,0,1-4.17,2.74c-.72.19-1.33.76-2.14.67-.39,0-.87,0-1-.41s.24-.67.49-1a29.43,29.43,0,0,1,3.85-3.11,14.37,14.37,0,0,0,4.33-7c.36-1.14.71-2.28,1-3.44.11-.46.36-1,.92-.93S84.92,46.18,85,46.47Z"
         id="path29"
         style="fill:#ffffff;fill-opacity:1" />
      <path
         class="cls-1"
         d="M153.79,61.27c-.61,0-1,.13-1.23-.28s.19-.69.44-.9c.93-.79,1.79-1.67,2.79-2.4a12.21,12.21,0,0,0,4.9-6.63c.46-1.6,1.2-3.11,1.52-4.76.07-.37.27-.73.7-.69s.42.56.38.86a42,42,0,0,1-1.57,7.66c-.68,1.9-1.2,3.85-3,5.12A13.7,13.7,0,0,1,153.79,61.27Z"
         id="path30"
         style="fill:#ffffff;fill-opacity:1" />
      <path
         class="cls-1"
         d="M137.14,61.27c-.22-.05-.78.13-.92-.44s.35-.64.64-.91c2.33-2.15,5.14-3.81,6.74-6.67A21.54,21.54,0,0,0,144.88,50c.45-1.28.83-2.57,1.27-3.85.11-.33.26-.78.71-.65s.49.64.38,1c-1,3.63-1,7.56-3.13,10.86a6.62,6.62,0,0,1-3.83,3.06C139.28,60.67,138.41,61.38,137.14,61.27Z"
         id="path31"
         style="fill:#ffffff;fill-opacity:1" />
      <path
         class="cls-1"
         d="M167,317.78c.75,1,.29,1.91.21,2.75-.31,3-.73,5.91-1.23,8.83-.44,2.55-2,4.64-3.05,7a.52.52,0,0,1-.7.29c-.3-.1-.17-.42-.14-.6a52.83,52.83,0,0,1,1.17-5.34,19.48,19.48,0,0,0,.58-3.51,20.22,20.22,0,0,1,1.28-5.86C165.61,320.12,166.29,319,167,317.78Z"
         id="path32"
         style="fill:#ffffff;fill-opacity:1" />
      <path
         class="cls-1"
         d="M152.19,338.77c-.61-.11-.82-.44-.45-.92a6.45,6.45,0,0,1,1.4-1.46,16,16,0,0,0,4.79-4.59,10.63,10.63,0,0,0,1.86-4.33c.1-1.05.9-2,.92-3.07a.45.45,0,0,1,.67-.44.71.71,0,0,1,.51.85c-.65,2.35-.69,4.83-1.69,7.13-.55,1.26-.82,2.65-1.74,3.71a7.92,7.92,0,0,1-4.4,2.43A8.88,8.88,0,0,0,152.19,338.77Z"
         id="path33"
         style="fill:#ffffff;fill-opacity:1" />
      <path
         class="cls-1"
         d="M87.81,325.07c-.91,2-.73,4.47-1.69,6.7-.62,1.44-1,3-2.16,4.12a8.58,8.58,0,0,1-5.44,2.36c-.36,0-.74,0-.92-.38s.14-.69.42-.88c1.33-.94,2.63-1.91,3.87-3a10.07,10.07,0,0,0,2.9-4.11,27.77,27.77,0,0,0,1.66-5.29,1,1,0,0,1,1-.81C88,323.87,87.72,324.47,87.81,325.07Z"
         id="path34"
         style="fill:#ffffff;fill-opacity:1" />
      <path
         class="cls-1"
         d="M226.44,324.74a58.82,58.82,0,0,1-1.28,6.76,11.51,11.51,0,0,1-2.48,4.71,7.63,7.63,0,0,1-3.23,1.68c-.68.22-1.34.49-2,.73a1,1,0,0,1-1-.18c-.34-.33,0-.67.16-.95a4.05,4.05,0,0,1,1.19-1.14,16.07,16.07,0,0,0,5.37-5.13,22.49,22.49,0,0,0,1.8-5.11c.17-.57.42-1.11.55-1.68.08-.36.29-.61.66-.54S226.53,324.41,226.44,324.74Z"
         id="path35"
         style="fill:#ffffff;fill-opacity:1" />
      <path
         class="cls-1"
         d="M10,330.85c-.43,1.35-.49,3-1,4.54a25.79,25.79,0,0,1-1.91,5.34,5.74,5.74,0,0,1-2.91,2.36,20.38,20.38,0,0,1-3.3,1.3c-.28.07-.54.23-.77,0a.67.67,0,0,1,0-.89A7.07,7.07,0,0,1,1.63,342c3-2,5.34-4.56,6.16-8.26A29.6,29.6,0,0,1,9,330.38c.12-.34.14-.81.6-.73S10,330.23,10,330.85Z"
         id="path36"
         style="fill:#ffffff;fill-opacity:1" />
      <path
         class="cls-1"
         d="M166.24,34.38a6.62,6.62,0,0,1-2.3,3.6,1,1,0,0,1-1.23-.08c-.61-.5-1.23-1-1.81-1.56s-.33-1.43,0-2.09a16.92,16.92,0,0,0,1.33-2.78c.34-1.15,1-1.15,2-.37A4.22,4.22,0,0,1,166.24,34.38Z"
         id="path37"
         style="fill:#ffffff;fill-opacity:1" />
      <path
         class="cls-1"
         d="M98.64,25.29a7.91,7.91,0,0,1-2.28,3.64.9.9,0,0,1-1,.11A5.77,5.77,0,0,1,93,26.78c-.41-.71.24-1.44.57-2.08a16,16,0,0,0,1-2.11c.4-1.13.84-1.15,1.92-.61C97.9,22.68,98.31,23.88,98.64,25.29Z"
         id="path38"
         style="fill:#ffffff;fill-opacity:1" />
      <path
         class="cls-1"
         d="M204.15,333.23a6.43,6.43,0,0,1-1.74,3.34.5.5,0,0,1-.53.17,3.49,3.49,0,0,1-1.45-.5c-2.31-1.83-2.37-2.25-.64-5.05,1.13-1.82,1.06-1.72,2.87-.5A3.28,3.28,0,0,1,204.15,333.23Z"
         id="path39"
         style="fill:#ffffff;fill-opacity:1" />
      <path
         class="cls-1"
         d="M198.09,302.58a6.24,6.24,0,0,1-1.72,4.41.91.91,0,0,1-.75.28,6.86,6.86,0,0,1-2.55-2.08c-.53-.52-.18-1.21.12-1.78a24.14,24.14,0,0,1,1.23-2.57,1.1,1.1,0,0,1,1.2-.55A3.67,3.67,0,0,1,198.09,302.58Z"
         id="path40"
         style="fill:#ffffff;fill-opacity:1" />
      <path
         class="cls-1"
         d="M227.45,313.13c0,1.47-1.41,3.8-2.41,4.2a.66.66,0,0,1-.44,0c-2.24-.83-2.89-2.8-1.62-4.88.18-.31.4-.59.57-.91,1-2,1.49-2.05,2.77-.28A7,7,0,0,1,227.45,313.13Z"
         id="path41"
         style="fill:#ffffff;fill-opacity:1" />
      <path
         class="cls-1"
         d="M23.26,309.25a6.63,6.63,0,0,1-1.78,3.63,1,1,0,0,1-.88.28,2.82,2.82,0,0,1-1.89-4.26,9.93,9.93,0,0,0,1.05-2c.34-1,1.11-1.08,1.93-.32S23.3,307.92,23.26,309.25Z"
         id="path42"
         style="fill:#ffffff;fill-opacity:1" />
      <path
         class="cls-1"
         d="M103,339.37v.69c-.2.28-.1.45.21.54l.23.21c.33.76.8,1.49.41,2.38-.2.44-.33.95-.9,1a1.11,1.11,0,0,1-1.17-.84c-.18-.52-.29-1.07-.44-1.6l.07-.62a1.22,1.22,0,0,0,.4-1.3l.27-.9C102.63,338.57,102.84,338.93,103,339.37Z"
         id="path43"
         style="fill:#ffffff;fill-opacity:1" />
      <path
         class="cls-1"
         d="M103,339.37c-.17-.44-.38-.8-.92-.45.72-1.46,1.45-2.93,2.19-4.39.14-.28.22-.82.71-.53s.33.66.09,1.05A26.37,26.37,0,0,0,103,339.37Z"
         id="path44"
         style="fill:#ffffff;fill-opacity:1" />
      <path
         class="cls-1"
         d="M101.35,341.74c.15.53.26,1.08.44,1.6a1.11,1.11,0,0,0,1.17.84c.57,0,.7-.55.9-1,.39-.89-.08-1.62-.41-2.38a2.27,2.27,0,0,1-.08,3.67,1.14,1.14,0,0,1-1.58-.39A2.53,2.53,0,0,1,101.35,341.74Z"
         id="path45"
         style="fill:#ffffff;fill-opacity:1" />
      <path
         class="cls-1"
         d="M56.69,311.29c-.4-.54-.77-.23-1.14,0,.08-.71.82-1.15.75-1.94a.41.41,0,0,1,.51-.36.6.6,0,0,1,.48.47A1.57,1.57,0,0,1,56.69,311.29Z"
         id="path46"
         style="fill:#ffffff;fill-opacity:1" />
      <path
         class="cls-1"
         d="M58.57,322.64c-.15-.51.14-.93.29-1.38.28-.82,0-1.23-.86-1.22a1.7,1.7,0,0,1-1.92-1.39,3.09,3.09,0,0,0,2.35,1.09c.81,0,1.13.62.82,1.41C59.05,321.66,58.8,322.14,58.57,322.64Z"
         id="path47"
         style="fill:#ffffff;fill-opacity:1" />
      <path
         class="cls-1"
         d="M54.82,313.12c-.38,1.44-.44,3-1.42,4.22C53.93,316,53.94,314.39,54.82,313.12Z"
         id="path48"
         style="fill:#ffffff;fill-opacity:1" />
      <path
         class="cls-1"
         d="M52.54,338.1a6.11,6.11,0,0,0,3.67-.94A2.72,2.72,0,0,1,52.54,338.1Z"
         id="path49"
         style="fill:#ffffff;fill-opacity:1" />
      <path
         class="cls-1"
         d="M53.1,329.26a11.7,11.7,0,0,1-1.67,3.89A13,13,0,0,1,53.1,329.26Z"
         id="path50"
         style="fill:#ffffff;fill-opacity:1" />
      <path
         class="cls-1"
         d="M57.21,331.19c-.78-.19-1.11.28-1.41.89s-.66.55-.85-.12c.56.09.71-.35,1-.71C56.29,330.72,56.75,330.49,57.21,331.19Z"
         id="path51"
         style="fill:#ffffff;fill-opacity:1" />
      <path
         class="cls-1"
         d="M55.73,315.61c0-.95-.21-2,.7-2.7A14.68,14.68,0,0,1,55.73,315.61Z"
         id="path52"
         style="fill:#ffffff;fill-opacity:1" />
      <path
         class="cls-1"
         d="M56.94,325.46A3.46,3.46,0,0,1,58.38,323Z"
         id="path53"
         style="fill:#ffffff;fill-opacity:1" />
      <path
         class="cls-1"
         d="M57.16,335.36c-.11-.9.55-1.51.82-2.26C58.15,334,57.56,334.65,57.16,335.36Z"
         id="path54"
         style="fill:#ffffff;fill-opacity:1" />
      <path
         class="cls-1"
         d="M51.23,333.51a4,4,0,0,1-.1,2A2.67,2.67,0,0,1,51.23,333.51Z"
         id="path55"
         style="fill:#ffffff;fill-opacity:1" />
      <path
         class="cls-1"
         d="M54.5,330.5c-.27-.64.1-1.09.44-1.55A1.76,1.76,0,0,1,54.5,330.5Z"
         id="path56"
         style="fill:#ffffff;fill-opacity:1" />
      <path
         class="cls-1"
         d="M54.52,325.45c1.08.18.85.68.31,1.26A1.55,1.55,0,0,0,54.52,325.45Z"
         id="path57"
         style="fill:#ffffff;fill-opacity:1" />
      <path
         class="cls-1"
         d="M56.19,337.18c.18-.52.07-1.2.76-1.44C56.69,336.21,56.76,336.87,56.19,337.18Z"
         id="path58"
         style="fill:#ffffff;fill-opacity:1" />
      <path
         class="cls-1"
         d="M101.82,339.82a1.22,1.22,0,0,1-.4,1.3A1.42,1.42,0,0,1,101.82,339.82Z"
         id="path59"
         style="fill:#ffffff;fill-opacity:1" />
      <path
         class="cls-1"
         d="M53.11,319.65c.22.49-.15.76-.41,1.07A1.22,1.22,0,0,1,53.11,319.65Z"
         id="path60"
         style="fill:#ffffff;fill-opacity:1" />
      <path
         class="cls-1"
         d="M55.88,327.2a.88.88,0,0,1,.6-1.06A1.78,1.78,0,0,1,55.88,327.2Z"
         id="path61"
         style="fill:#ffffff;fill-opacity:1" />
      <path
         class="cls-1"
         d="M52.64,321.33a1.3,1.3,0,0,1,0,1.06A.88.88,0,0,1,52.64,321.33Z"
         id="path62"
         style="fill:#ffffff;fill-opacity:1" />
      <path
         class="cls-1"
         d="M51.4,336.73c.53.14.62.56.64,1A1.81,1.81,0,0,1,51.4,336.73Z"
         id="path63"
         style="fill:#ffffff;fill-opacity:1" />
      <path
         class="cls-1"
         d="M53.35,318c.18.33.16.61-.2.8A1,1,0,0,1,53.35,318Z"
         id="path64"
         style="fill:#ffffff;fill-opacity:1" />
      <path
         class="cls-1"
         d="M53.54,328.51c0,.33,0,.67-.45.76A1.18,1.18,0,0,1,53.54,328.51Z"
         id="path65"
         style="fill:#ffffff;fill-opacity:1" />
      <path
         class="cls-1"
         d="M51.11,336a1.06,1.06,0,0,1,.29.75A.54.54,0,0,1,51.11,336Z"
         id="path66"
         style="fill:#ffffff;fill-opacity:1" />
      <path
         class="cls-1"
         d="M55.37,311.93a.45.45,0,0,1-.3.61A.6.6,0,0,1,55.37,311.93Z"
         id="path67"
         style="fill:#ffffff;fill-opacity:1" />
      <path
         class="cls-1"
         d="M56,318.49c-.27-.08-.49-.18-.23-.51Z"
         id="path68"
         style="fill:#ffffff;fill-opacity:1" />
      <path
         class="cls-1"
         d="M55.33,327.9a.48.48,0,0,1,.43-.55A.62.62,0,0,1,55.33,327.9Z"
         id="path69"
         style="fill:#ffffff;fill-opacity:1" />
      <path
         class="cls-1"
         d="M103.22,340.6c-.31-.09-.41-.26-.21-.54Z"
         id="path70"
         style="fill:#ffffff;fill-opacity:1" />
      <path
         class="cls-1"
         d="M54.06,324.93a.55.55,0,0,1,.47.52A.54.54,0,0,1,54.06,324.93Z"
         id="path71"
         style="fill:#ffffff;fill-opacity:1" />
    </g>
  </g>
</svg>
